Nederland
Drama
90 minuten

geregisseerd door Jean van de Velde
met Antonie Kamerling, Olivier Tuinier en Loes Wouterson

De dichter Valentijn komt weer in contact met zijn vroegere juf Mieke. Ze krijgen een kortstondige relatie en later blijkt Mieke zwanger te zijn. Valentijn heeft geen zin om zijn verantwoordelijkheid te nemen en laat haar in de steek. Maar als hij later zijn zoon leert kennen ontwikkelt zich toch een band tussen de twee.

Format                           : AVI
Format/Info                      : Audio Video Interleave
File size                        : 1.28 GiB
Duration                         : 1h 30mn
Overall bit rate                 : 2 009 Kbps
Movie name                       : DE_KLEINE_BLONDE_DOOD.Title1.DVDRip
Writing application              : Lavf52.33.0
Original source form/Name        : DE_KLEINE_BLONDE_DOOD

Video
ID                               : 0
Format                           : xvid
Codec ID                         : xvid
Duration                         : 1h 30mn
Bit rate                         : 1 553 Kbps
Width                            : 720 pixels
Height                           : 324 pixels
Display aspect ratio             : 2.222
Frame rate                       : 25.000 fps
Bits/(Pixel*Frame)               : 0.266
Stream size                      : 1 008 MiB (77%)

Audio
ID                               : 1
Format                           : AC-3
Format/Info                      : Audio Coding 3
Mode extension                   : CM (complete main)
Codec ID                         : 2000
Duration                         : 1h 30mn
Bit rate mode                    : Constant
Bit rate                         : 448 Kbps
Channel(s)                       : 6 channels
Channel positions                : Front: L C R, Side: L R, LFE
Sampling rate                    : 48.0 KHz
Bit depth                        : 16 bits
Stream size                      : 291 MiB (22%)
Alignment                        : Aligned on interleaves
Interleave, duration             : 32 ms (0.80 video frame)
Interleave, preload duration     : 32 ms

Moviemeter: http://www.moviemeter.nl/film/1265
IMdB: http://www.imdb.com/title/tt0107331/
